<?xml version="1.0" encoding="UTF-8" standalone="no"?>
<svg
   xmlns:dc="http://purl.org/dc/elements/1.1/"
   xmlns:cc="http://creativecommons.org/ns#"
   xmlns:rdf="http://www.w3.org/1999/02/22-rdf-syntax-ns#"
   xmlns:svg="http://www.w3.org/2000/svg"
   xmlns="http://www.w3.org/2000/svg"
   xmlns:sodipodi="http://sodipodi.sourceforge.net/DTD/sodipodi-0.dtd"
   xmlns:inkscape="http://www.inkscape.org/namespaces/inkscape"
   height="800"
   version="1.1"
   id="svg964"
   sodipodi:docname="4.svg"
   inkscape:version="0.92.4 (5da689c313, 2019-01-14)">
  <metadata
     id="metadata970">
    <rdf:RDF>
      <cc:Work
         rdf:about="">
        <dc:format>image/svg+xml</dc:format>
        <dc:type
           rdf:resource="http://purl.org/dc/dcmitype/StillImage" />
      </cc:Work>
    </rdf:RDF>
  </metadata>
  <defs
     id="defs968" />
  <sodipodi:namedview
     pagecolor="#ffffff"
     bordercolor="#666666"
     borderopacity="1"
     objecttolerance="10"
     gridtolerance="10"
     guidetolerance="10"
     inkscape:pageopacity="0"
     inkscape:pageshadow="2"
     inkscape:window-width="1920"
     inkscape:window-height="1028"
     id="namedview966"
     showgrid="false"
     inkscape:zoom="0.02"
     inkscape:cx="16972.422"
     inkscape:cy="30739.58"
     inkscape:window-x="-8"
     inkscape:window-y="-8"
     inkscape:window-maximized="1"
     inkscape:current-layer="g962" />
  <g
     transform="translate(200,200)"
     style="fill-opacity:1; fill:none;"
     id="g962">
    <g
       style="fill:#992600"
       id="g384"
       transform="matrix(478.80088,0,0,478.80088,18265.984,-47194.552)">
      <path
         d="M 50.6,84 C 28.126303,62.48393 -6.083852,58.924673 -24.592245,78.875547 c 0,0 10.806288,-20.910051 38.406288,-15.310051 C 13.814043,63.565496 -3.4,58.8 -15.8,62 c 0,0 -16.8,0 -26.4,14 l -2.8,4.8 c 0,0 4,-14.8 22.4,-20.8 0,0 21.7778432,-2.923387 32.5778436,1.876613 C 9.9778436,61.876613 -10.6,53.2 -20.6,55.2 c 0,0 -30.4,-2.4 -43.2,24 0,0 4,-14.4 18.8,-21.6 0,0 13.6,-8.8 34,-6 0,0 14.5094434,3.090557 19.7094434,5.490557 C 11.59837,52.21924 -8.9205325,42.378383 -15.4,42.4 c 0,0 -42.47167,6.773859 -52.87167,18.773859 C -68.27167,61.173859 -55,46.8 -44.6,44 c 0,0 22.4,-8 30.8,-7.2 0,0 24.8,1 32.4,-3 0,0 -11.2,5 -8,8.2 9.750152,15.738029 25.749586,25.833376 37.8,39.7 z"
         id="path382"
         inkscape:connector-curvature="0"
         sodipodi:nodetypes="ccccccccccccccccccccc" />
    </g>
    <path
       style="fill:none;stroke:#000000;stroke-width:100.72627258px;stroke-linecap:butt;stroke-linejoin:miter;stroke-opacity:1"
       d="M -18043.833,-35013.348 -21672.348,3854.0839 53800.729,761.55869 49446.509,-40846.977 Z"
       id="path1292"
       inkscape:connector-curvature="0" />
  </g>
</svg>
