<?xml version="1.0" encoding="UTF-8" standalone="no"?>
<svg
   xmlns:dc="http://purl.org/dc/elements/1.1/"
   xmlns:cc="http://creativecommons.org/ns#"
   xmlns:rdf="http://www.w3.org/1999/02/22-rdf-syntax-ns#"
   xmlns:svg="http://www.w3.org/2000/svg"
   xmlns="http://www.w3.org/2000/svg"
   xmlns:sodipodi="http://sodipodi.sourceforge.net/DTD/sodipodi-0.dtd"
   xmlns:inkscape="http://www.inkscape.org/namespaces/inkscape"
   height="800"
   version="1.1"
   id="svg964"
   sodipodi:docname="5.svg"
   inkscape:version="0.92.4 (5da689c313, 2019-01-14)">
  <metadata
     id="metadata970">
    <rdf:RDF>
      <cc:Work
         rdf:about="">
        <dc:format>image/svg+xml</dc:format>
        <dc:type
           rdf:resource="http://purl.org/dc/dcmitype/StillImage" />
      </cc:Work>
    </rdf:RDF>
  </metadata>
  <defs
     id="defs968" />
  <sodipodi:namedview
     pagecolor="#ffffff"
     bordercolor="#666666"
     borderopacity="1"
     objecttolerance="10"
     gridtolerance="10"
     guidetolerance="10"
     inkscape:pageopacity="0"
     inkscape:pageshadow="2"
     inkscape:window-width="1920"
     inkscape:window-height="1028"
     id="namedview966"
     showgrid="false"
     inkscape:zoom="0.834386"
     inkscape:cx="-126.24172"
     inkscape:cy="517.30124"
     inkscape:window-x="-8"
     inkscape:window-y="-8"
     inkscape:window-maximized="1"
     inkscape:current-layer="g962" />
  <g
     transform="translate(200,200)"
     style="fill-opacity:1; fill:none;"
     id="g962">
    <g
       style="fill:#992600"
       id="g384"
       transform="translate(-290.63287,-140.82211)">
      <path
         d="m 50.6,84 c 0,0 -20.4,-19.2 -28.4,-20 0,0 -34.4,-4 -49.2,14 0,0 17.6,-20.4 45.2,-14.8 0,0 -21.6,-4.4 -34,-1.2 0,0 -16.8,0 -26.4,14 l -2.8,4.8 c 0,0 4,-14.8 22.4,-20.8 0,0 22.8,-4.8 33.6,0 0,0 -21.6,-6.8 -31.6,-4.8 0,0 -30.4,-2.4 -43.2,24 0,0 4,-14.4 18.8,-21.6 0,0 13.6,-8.8 34,-6 0,0 14.4,3.2 19.6,5.6 5.2,2.4 4,-0.4 -4.4,-5.2 0,0 -5.6,-10 -19.6,-9.6 0,0 -42.8,3.6 -53.2,15.6 0,0 13.6,-11.2 24,-14 0,0 22.4,-8 30.8,-7.2 0,0 24.8,1 32.4,-3 0,0 -11.2,5 -8,8.2 3.2,3.2 10,10.8 10,12 0,1.2 24.2,23.3 27.8,27.7 z"
         id="path382"
         inkscape:connector-curvature="0" />
    </g>
  </g>
</svg>
