<?xml version="1.0" encoding="UTF-8" standalone="no"?>
<!-- Created with Inkscape (http://www.inkscape.org/) -->

<svg
   xmlns:dc="http://purl.org/dc/elements/1.1/"
   xmlns:cc="http://creativecommons.org/ns#"
   xmlns:rdf="http://www.w3.org/1999/02/22-rdf-syntax-ns#"
   xmlns:svg="http://www.w3.org/2000/svg"
   xmlns="http://www.w3.org/2000/svg"
   xmlns:sodipodi="http://sodipodi.sourceforge.net/DTD/sodipodi-0.dtd"
   xmlns:inkscape="http://www.inkscape.org/namespaces/inkscape"
   width="210mm"
   height="297mm"
   viewBox="0 0 210 297"
   version="1.1"
   id="svg8"
   inkscape:version="0.92.4 (5da689c313, 2019-01-14)"
   sodipodi:docname="drawing-1.svg">
  <defs
     id="defs2" />
  <sodipodi:namedview
     id="base"
     pagecolor="#ffffff"
     bordercolor="#666666"
     borderopacity="1.0"
     inkscape:pageopacity="0.0"
     inkscape:pageshadow="2"
     inkscape:zoom="0.49497475"
     inkscape:cx="-988.12745"
     inkscape:cy="341.90251"
     inkscape:document-units="mm"
     inkscape:current-layer="layer1"
     showgrid="false"
     inkscape:window-width="1920"
     inkscape:window-height="1028"
     inkscape:window-x="-8"
     inkscape:window-y="-8"
     inkscape:window-maximized="1" />
  <metadata
     id="metadata5">
    <rdf:RDF>
      <cc:Work
         rdf:about="">
        <dc:format>image/svg+xml</dc:format>
        <dc:type
           rdf:resource="http://purl.org/dc/dcmitype/StillImage" />
        <dc:title />
      </cc:Work>
    </rdf:RDF>
  </metadata>
  <g
     inkscape:label="Layer 1"
     inkscape:groupmode="layer"
     id="layer1">
    <text
       xml:space="preserve"
       style="font-style:normal;font-weight:normal;font-size:50.79999924px;line-height:1.25;font-family:sans-serif;letter-spacing:0px;word-spacing:0px;fill:#000000;fill-opacity:1;stroke:none;stroke-width:0.26458332"
       x="-410.526"
       y="204.52473"
       id="text822"><tspan
         sodipodi:role="line"
         id="tspan820"
         x="-410.526"
         y="204.52473"
         style="stroke-width:0.26458332">Habr</tspan></text>
    <path
       style="fill:#808080;fill-opacity:1;fill-rule:evenodd;stroke:#000000;stroke-width:2.02348661;stroke-linecap:round;stroke-linejoin:round;stroke-miterlimit:4;stroke-dasharray:none;stroke-dashoffset:0;stroke-opacity:1"
       d="m -1674.6271,715.96741 -4.0406,-206.07112 h 379.8173 379.81739 v 212.13204 212.13203 h -379.81739 -379.8173 z m 338.2499,53.73349 9.2426,-5.4165 v 5.13594 c 0,4.8278 0.6164,5.13592 10.2751,5.13592 h 10.2751 l -0.6786,-43.02561 c -0.6044,-38.31208 -1.1037,-43.67927 -4.5579,-48.99239 -8.0928,-12.44807 -18.424,-16.71559 -40.9732,-16.92477 -9.1124,-0.0845 -21.1585,0.83077 -26.769,2.03401 l -10.201,2.18772 v 10.15026 c 0,8.85357 0.4517,9.97135 3.5355,8.74978 9.8991,-3.92118 32.1528,-7.15921 40.5491,-5.9001 10.7081,1.60577 18.5449,8.3113 18.5449,15.86783 0,4.78601 -0.6654,5.14365 -9.5965,5.15785 -39.3259,0.0625 -61.1142,13.5245 -61.1142,37.75948 0,15.55788 7.2453,27.32408 20.2041,32.81108 9.0504,3.83212 30.9338,1.32343 41.264,-4.7305 z m 127.9384,1.69677 c 18.9103,-9.42341 28.0557,-29.99945 26.3593,-59.30484 -1.087,-18.7763 -6.8562,-32.14058 -17.3204,-40.12198 -6.487,-4.94787 -8.8676,-5.50091 -23.6793,-5.50091 -14.6026,0 -17.4228,0.63234 -24.906,5.5845 l -8.4388,5.58451 v -25.28248 -25.28248 h -9.0913 -9.0914 v 73.74113 73.74114 h 8.923 c 4.9077,0 9.2354,-0.93702 9.6171,-2.08227 0.4478,-1.3433 3.5546,-1.03534 8.7547,0.8678 12.8635,4.70788 26.9366,4.00407 38.8731,-1.94412 z m -304.5639,-31.1866 v -34.34518 h 33.335 33.3351 v 34.34518 34.34519 h 10.1015 10.1015 V 703.84558 633.1349 h -10.1015 -10.1015 v 27.27412 27.27412 h -33.3351 -33.335 V 660.40902 633.1349 h -10.1015 -10.1016 v 70.71068 70.71068 h 10.1016 10.1015 z m 377.3363,-4.48651 0.5495,-37.82156 8.7194,-5.10993 c 7.1311,-4.1791 11.3552,-5.10993 23.1892,-5.10993 h 14.4697 v -10.10152 -10.10153 h -9.8001 c -11.0501,0 -20.9858,2.88477 -28.8976,8.39023 -6.9682,4.8488 -7.3831,4.75581 -8.1402,-1.82424 -0.5855,-5.08787 -1.4476,-5.6077 -10.2358,-6.17161 l -9.5964,-0.61577 v 53.75948 53.75946 l 9.5964,-0.61576 9.5965,-0.61577 z"
       id="path826"
       inkscape:connector-curvature="0"
       transform="scale(0.26458333)"
       sodipodi:nodetypes="cccccccccccssccccscsccssssccccsccccccccscccccccccccccccccccccccccccccccscccsccscccccc" />
    <path
       style="fill:#808080;fill-opacity:1;fill-rule:evenodd;stroke:#000000;stroke-width:2.02348661;stroke-linecap:round;stroke-linejoin:round;stroke-miterlimit:4;stroke-dasharray:none;stroke-dashoffset:0;stroke-opacity:1"
       d="m -1372.319,754.20658 c -3.9357,-3.09582 -5.3233,-6.02676 -5.3233,-11.2445 0,-14.99011 8.1808,-20.28893 34.4513,-22.31476 l 16.0564,-1.23819 V 733.67 747.93087 l -10.4982,5.23147 c -13.2717,6.61355 -27.0776,7.02918 -34.6862,1.04424 z"
       id="path828"
       inkscape:connector-curvature="0"
       transform="scale(0.26458333)" />
    <path
       style="fill:#808080;fill-opacity:1;fill-rule:evenodd;stroke:#000000;stroke-width:2.02348661;stroke-linecap:round;stroke-linejoin:round;stroke-miterlimit:4;stroke-dasharray:none;stroke-dashoffset:0;stroke-opacity:1"
       d="m -1249.858,755.87501 -6.566,-2.10632 v -29.8316 -29.83161 l 10.4982,-5.23147 c 27.2318,-13.57016 44.0501,-1.64283 44.0501,31.23979 0,16.74878 -3.1542,25.37341 -12.0022,32.81851 -5.481,4.61198 -8.2734,5.42943 -17.9523,5.25526 -6.304,-0.11344 -14.4165,-1.15409 -18.0278,-2.31256 z"
       id="path830"
       inkscape:connector-curvature="0"
       transform="scale(0.26458333)" />
  </g>
</svg>
