<?xml version="1.0" encoding="UTF-8" standalone="no"?>
<!-- Generator: Adobe Illustrator 13.0.0, SVG Export Plug-In . SVG Version: 6.00 Build 14948)  -->

<svg
   xmlns:dc="http://purl.org/dc/elements/1.1/"
   xmlns:cc="http://creativecommons.org/ns#"
   xmlns:rdf="http://www.w3.org/1999/02/22-rdf-syntax-ns#"
   xmlns:svg="http://www.w3.org/2000/svg"
   xmlns="http://www.w3.org/2000/svg"
   xmlns:sodipodi="http://sodipodi.sourceforge.net/DTD/sodipodi-0.dtd"
   xmlns:inkscape="http://www.inkscape.org/namespaces/inkscape"
   version="1.1"
   id="Layer_1"
   x="0px"
   y="0px"
   width="640px"
   height="480px"
   viewBox="0 0 640 480"
   enable-background="new 0 0 640 480"
   xml:space="preserve"
   sodipodi:docname="nano.svg"
   inkscape:version="0.92.4 (5da689c313, 2019-01-14)"><metadata
   id="metadata9"><rdf:RDF><cc:Work
       rdf:about=""><dc:format>image/svg+xml</dc:format><dc:type
         rdf:resource="http://purl.org/dc/dcmitype/StillImage" /></cc:Work></rdf:RDF></metadata><defs
   id="defs7" /><sodipodi:namedview
   pagecolor="#ffffff"
   bordercolor="#666666"
   borderopacity="1"
   objecttolerance="10"
   gridtolerance="10"
   guidetolerance="10"
   inkscape:pageopacity="0"
   inkscape:pageshadow="2"
   inkscape:window-width="1046"
   inkscape:window-height="707"
   id="namedview5"
   showgrid="false"
   inkscape:zoom="0.24630394"
   inkscape:cx="415.43622"
   inkscape:cy="1906.4975"
   inkscape:window-x="1157"
   inkscape:window-y="125"
   inkscape:window-maximized="0"
   inkscape:current-layer="Layer_1" />

<path
   inkscape:connector-curvature="0"
   d="m 308.03575,-1068.783 c 0,5.31 -1.031,10.156 -3.087,14.543 -2.059,4.387 -4.984,8.152 -8.774,11.293 -3.793,3.144 -8.477,5.58 -14.055,7.312 -5.581,1.731 -11.836,2.601 -18.767,2.601 -9.968,0 -18.605,-1.572 -25.917,-4.713 -7.312,-3.141 -13.299,-6.986 -17.955,-11.536 l 13.812,-15.111 c 4.116,3.684 8.584,6.499 13.405,8.449 4.819,1.95 9.993,2.925 15.518,2.925 5.525,0 9.856,-1.219 12.999,-3.656 3.141,-2.438 4.712,-5.769 4.712,-9.993 0,-2.056 -0.3,-3.844 -0.894,-5.361 -0.596,-1.517 -1.653,-2.925 -3.168,-4.226 -1.518,-1.3 -3.549,-2.519 -6.093,-3.655 -2.546,-1.138 -5.768,-2.301 -9.668,-3.494 -6.5,-2.056 -11.943,-4.25 -16.33,-6.58 -4.387,-2.328 -7.937,-4.9 -10.643,-7.719 -2.709,-2.815 -4.659,-5.931 -5.849,-9.343 -1.193,-3.412 -1.788,-7.23 -1.788,-11.455 0,-5.2 1.082,-9.831 3.25,-13.893 2.166,-4.062 5.144,-7.5 8.937,-10.318 3.791,-2.815 8.178,-4.956 13.162,-6.418 4.981,-1.462 10.343,-2.193 16.086,-2.193 8.449,0 15.842,1.247 22.179,3.737 6.337,2.493 11.997,6.121 16.98,10.887 l -12.674,14.624 c -7.583,-6.281 -15.655,-9.424 -24.21,-9.424 -4.875,0 -8.721,0.95 -11.537,2.844 -2.818,1.896 -4.225,4.578 -4.225,8.043 0,1.843 0.297,3.412 0.894,4.712 0.594,1.3 1.65,2.519 3.168,3.656 1.516,1.137 3.656,2.249 6.418,3.331 2.763,1.084 6.309,2.33 10.643,3.736 5.306,1.734 10.046,3.631 14.218,5.688 4.169,2.06 7.662,4.524 10.48,7.394 2.815,2.871 4.981,6.174 6.5,9.911 1.513,3.734 2.273,8.202 2.273,13.402 z m 53.295,10.562 20.637,-90.181 h 27.46 l -32.011,112.604 h -33.634 l -32.173,-112.604 h 28.598 l 20.311,90.181 z m 101.879,25.186 c -16.357,0 -28.896,-5.01 -37.615,-15.03 -8.722,-10.019 -13.081,-24.779 -13.081,-44.278 0,-9.531 1.407,-17.98 4.225,-25.348 2.815,-7.366 6.688,-13.54 11.618,-18.524 4.928,-4.981 10.668,-8.747 17.223,-11.293 6.555,-2.544 13.568,-3.818 21.043,-3.818 8.23,0 15.436,1.3 21.611,3.899 6.174,2.6 11.537,5.959 16.086,10.075 l -14.137,14.624 c -3.467,-3.032 -6.906,-5.281 -10.318,-6.744 -3.412,-1.463 -7.393,-2.193 -11.941,-2.193 -4.01,0 -7.693,0.731 -11.051,2.193 -3.358,1.462 -6.256,3.793 -8.691,6.987 -2.438,3.196 -4.334,7.287 -5.688,12.268 -1.355,4.984 -2.031,10.996 -2.031,18.037 0,7.367 0.486,13.567 1.463,18.604 0.975,5.037 2.408,9.1 4.305,12.187 1.895,3.087 4.307,5.309 7.23,6.662 2.926,1.355 6.338,2.031 10.238,2.031 5.631,0 10.613,-1.244 14.947,-3.737 v -25.186 h -14.785 l -2.6,-18.849 h 43.547 v 55.57 c -5.85,3.793 -12.297,6.718 -19.336,8.774 -7.043,2.057 -14.463,3.089 -22.262,3.089 z m 85.668,-134.519 c 0,-6.627 -5.373,-12 -12,-12 h -343 c -6.627,0 -12,5.373 -12,12 v 150 c 0,6.627 5.373,12 12,12 h 343 c 6.627,0 12,-5.373 12,-12 z"
   id="path2-6"
   style="fill:#808080;fill-opacity:1" /><path
   style="fill:#800080;fill-opacity:1;fill-rule:evenodd;stroke:#000000;stroke-width:2.03320885;stroke-linecap:round;stroke-linejoin:round;stroke-miterlimit:4;stroke-dasharray:none;stroke-dashoffset:0;stroke-opacity:1"
   d="m 322.04274,-946.2444 c -9.9635,-4.64847 -19.9411,-15.66857 -23.61498,-26.08238 -1.56874,-4.44666 -2.7487,-16.05878 -2.75089,-27.07178 -0.004,-22.47834 3.8375,-33.23654 16.13434,-45.17914 16.6041,-16.1256 46.58009,-18.181 67.28665,-4.6135 l 5.30928,3.4788 -6.5382,6.7457 -6.53819,6.7457 -6.36519,-3.8813 c -10.09494,-6.1556 -23.95973,-5.2568 -32.33419,2.0961 -8.19285,7.1934 -11.59013,17.42 -11.57491,34.84317 0.0234,26.80949 7.19943,38.3347 23.86856,38.3347 14.55218,0 17.07869,-2.6788 16.32762,-17.31178 l -0.62226,-12.12339 -7.61255,-0.63005 c -5.53047,-0.45772 -7.62012,-1.56816 -7.64026,-4.06002 -0.0152,-1.88649 -0.57854,-5.48533 -1.25177,-7.99753 -1.21312,-4.5267 -1.03161,-4.5675 20.32784,-4.5675 h 21.55189 v 27.15518 27.15517 l -10.65756,4.7361 c -14.70992,6.53693 -41.65527,7.66303 -53.30523,2.22775 z"
   id="path848"
   inkscape:connector-curvature="0" /><path
   style="fill:#800080;fill-opacity:1;fill-rule:evenodd;stroke:#000000;stroke-width:2.03320885;stroke-linecap:round;stroke-linejoin:round;stroke-miterlimit:4;stroke-dasharray:none;stroke-dashoffset:0;stroke-opacity:1"
   d="m 222.67283,-955.10006 c -1.702,-5.86166 -8.91426,-30.98306 -16.02724,-55.82534 l -12.9327,-45.1678 h 13.50814 13.50814 l 9.79123,44.1528 c 5.38517,24.28402 10.44452,44.86109 11.243,45.72683 0.79848,0.86574 5.41284,-16.03412 10.25415,-37.55523 13.15912,-58.4964 10.27126,-52.3244 24.48213,-52.3244 7.05897,0 12.08466,0.8833 12.08466,2.1239 0,1.5977 -21.57396,78.65235 -29.67097,105.97428 -0.88757,2.99495 -3.57135,3.55252 -17.0994,3.55252 h -16.04659 z"
   id="path850"
   inkscape:connector-curvature="0" /><path
   style="fill:#800080;fill-opacity:1;fill-rule:evenodd;stroke:#000000;stroke-width:2.03320885;stroke-linecap:round;stroke-linejoin:round;stroke-miterlimit:4;stroke-dasharray:none;stroke-dashoffset:0;stroke-opacity:1"
   d=""
   id="path854"
   inkscape:connector-curvature="0" /><path
   style="fill:#800080;fill-opacity:1;fill-rule:evenodd;stroke:#000000;stroke-width:2.03320885;stroke-linecap:round;stroke-linejoin:round;stroke-miterlimit:4;stroke-dasharray:none;stroke-dashoffset:0;stroke-opacity:1"
   d="m 122.5865,-944.30713 c -4.23495,-1.55428 -10.47147,-4.79948 -13.85892,-7.21156 l -6.15901,-4.3856 6.334,-6.53503 6.334,-6.53503 9.39148,4.75458 c 13.22241,6.69403 27.42323,6.51939 34.36524,-0.42262 4.04443,-4.04443 4.87686,-6.3738 3.80456,-10.64621 -2.06933,-8.24485 -3.78674,-9.52916 -21.89014,-16.36979 -24.20182,-9.14501 -31.93642,-17.53181 -31.93642,-34.62921 0,-9.4568 6.57718,-19.7529 16.247,-25.4334 10.45841,-6.1438 38.21384,-5.926 50.09817,0.3931 11.45083,6.0886 12.17633,7.9836 5.66036,14.7848 l -5.57844,5.8226 -7.75752,-3.9576 c -15.37223,-7.8423 -32.27941,-3.4969 -32.27941,8.2963 0,6.561 5.24092,10.0304 26.25716,17.3822 21.09492,7.3792 31.32822,23.56971 26.41952,41.79923 -2.87236,10.66714 -12.87671,20.85066 -23.33676,23.7547 -10.9093,3.02876 -32.73136,2.5824 -42.11487,-0.86146 z"
   id="path856"
   inkscape:connector-curvature="0" /><path
   inkscape:connector-curvature="0"
   d="m 311.46951,-1328.5171 c 0,5.31 -1.031,10.156 -3.087,14.543 -2.059,4.387 -4.984,8.152 -8.774,11.293 -3.793,3.144 -8.477,5.58 -14.055,7.312 -5.581,1.731 -11.836,2.601 -18.767,2.601 -9.968,0 -18.605,-1.572 -25.917,-4.713 -7.312,-3.141 -13.299,-6.986 -17.955,-11.536 l 13.812,-15.111 c 4.116,3.684 8.584,6.499 13.405,8.449 4.819,1.95 9.993,2.925 15.518,2.925 5.525,0 9.856,-1.219 12.999,-3.656 3.141,-2.438 4.712,-5.769 4.712,-9.993 0,-2.056 -0.3,-3.844 -0.894,-5.361 -0.596,-1.517 -1.653,-2.925 -3.168,-4.226 -1.518,-1.3 -3.549,-2.519 -6.093,-3.655 -2.546,-1.138 -5.768,-2.301 -9.668,-3.494 -6.5,-2.056 -11.943,-4.25 -16.33,-6.58 -4.387,-2.328 -7.937,-4.9 -10.643,-7.719 -2.709,-2.815 -4.659,-5.931 -5.849,-9.343 -1.193,-3.412 -1.788,-7.23 -1.788,-11.455 0,-5.2 1.082,-9.831 3.25,-13.893 2.166,-4.062 5.144,-7.5 8.937,-10.318 3.791,-2.815 8.178,-4.956 13.162,-6.418 4.981,-1.462 10.343,-2.193 16.086,-2.193 8.449,0 15.842,1.247 22.179,3.737 6.337,2.493 11.997,6.121 16.98,10.887 l -12.674,14.624 c -7.583,-6.281 -15.655,-9.424 -24.21,-9.424 -4.875,0 -8.721,0.95 -11.537,2.844 -2.818,1.896 -4.225,4.578 -4.225,8.043 0,1.843 0.297,3.412 0.894,4.712 0.594,1.3 1.65,2.519 3.168,3.656 1.516,1.137 3.656,2.249 6.418,3.331 2.763,1.084 6.309,2.33 10.643,3.736 5.306,1.734 10.046,3.631 14.218,5.688 4.169,2.06 7.662,4.524 10.48,7.394 2.815,2.871 4.981,6.174 6.5,9.911 1.513,3.734 2.273,8.202 2.273,13.402 z m 53.295,10.562 20.637,-90.181 h 27.46 l -32.011,112.604 h -33.634 l -32.173,-112.604 h 28.598 l 20.311,90.181 z m 101.879,25.186 c -16.357,0 -28.896,-5.01 -37.615,-15.03 -8.722,-10.019 -13.081,-24.779 -13.081,-44.278 0,-9.531 1.407,-17.98 4.225,-25.348 2.815,-7.366 6.688,-13.54 11.618,-18.524 4.928,-4.981 10.668,-8.747 17.223,-11.293 6.555,-2.544 13.568,-3.818 21.043,-3.818 8.23,0 15.436,1.3 21.611,3.899 6.174,2.6 11.537,5.959 16.086,10.075 l -14.137,14.624 c -3.467,-3.032 -6.906,-5.281 -10.318,-6.744 -3.412,-1.463 -7.393,-2.193 -11.941,-2.193 -4.01,0 -7.693,0.731 -11.051,2.193 -3.358,1.462 -6.256,3.793 -8.691,6.987 -2.438,3.196 -4.334,7.287 -5.688,12.268 -1.355,4.984 -2.031,10.996 -2.031,18.037 0,7.367 0.486,13.567 1.463,18.604 0.975,5.037 2.408,9.1 4.305,12.187 1.895,3.087 4.307,5.309 7.23,6.662 2.926,1.355 6.338,2.031 10.238,2.031 5.631,0 10.613,-1.244 14.947,-3.737 v -25.186 h -14.785 l -2.6,-18.849 h 43.547 v 55.57 c -5.85,3.793 -12.297,6.718 -19.336,8.774 -7.043,2.057 -14.463,3.089 -22.262,3.089 z m 85.668,-134.519 c 0,-6.627 -5.373,-12 -12,-12 h -343 c -6.627,0 -12,5.373 -12,12 v 150 c 0,6.627 5.373,12 12,12 h 343 c 6.627,0 12,-5.373 12,-12 z"
   id="path2-6-2"
   style="fill:#808080;fill-opacity:1" /><path
   style="fill:#800080;fill-opacity:1;fill-rule:evenodd;stroke:#000000;stroke-width:2.03320885;stroke-linecap:round;stroke-linejoin:round;stroke-miterlimit:4;stroke-dasharray:none;stroke-dashoffset:0;stroke-opacity:1"
   d="m 325.4765,-1205.9785 c -9.9635,-4.6485 -19.9411,-15.6686 -23.61498,-26.0824 -1.56874,-4.4466 -2.7487,-16.0588 -2.75089,-27.0718 -0.004,-22.4783 3.8375,-33.2365 16.13434,-45.179 16.6041,-16.1257 46.58009,-18.1811 67.28665,-4.6136 l 5.30928,3.4788 -6.5382,6.7457 -6.53819,6.7457 -6.36519,-3.8813 c -10.09494,-6.1556 -23.95973,-5.2568 -32.33419,2.0961 -8.19285,7.1934 -11.59013,17.42 -11.57491,34.8432 0.0234,26.8095 7.19943,38.3347 23.86856,38.3347 14.55218,0 17.07869,-2.6788 16.32762,-17.3118 l -0.62226,-12.1234 -7.61255,-0.63 c -5.53047,-0.4578 -7.62012,-1.5682 -7.64026,-4.0601 -0.0152,-1.8865 -0.57854,-5.4853 -1.25177,-7.9975 -1.21312,-4.5267 -1.03161,-4.5675 20.32784,-4.5675 h 21.55189 v 27.1552 27.1552 l -10.65756,4.7361 c -14.70992,6.5369 -41.65527,7.663 -53.30523,2.2277 z"
   id="path848-9"
   inkscape:connector-curvature="0" /><path
   style="fill:#800080;fill-opacity:1;fill-rule:evenodd;stroke:#000000;stroke-width:2.03320885;stroke-linecap:round;stroke-linejoin:round;stroke-miterlimit:4;stroke-dasharray:none;stroke-dashoffset:0;stroke-opacity:1"
   d="m 226.10659,-1214.8342 c -1.702,-5.8616 -8.91426,-30.983 -16.02724,-55.8253 l -12.9327,-45.1678 h 13.50814 13.50814 l 9.79123,44.1528 c 5.38517,24.284 10.44452,44.8611 11.243,45.7268 0.79848,0.8658 5.41284,-16.0341 10.25415,-37.5552 13.15912,-58.4964 10.27126,-52.3244 24.48213,-52.3244 7.05897,0 12.08466,0.8833 12.08466,2.1239 0,1.5977 -21.57396,78.6524 -29.67097,105.9743 -0.88757,2.9949 -3.57135,3.5525 -17.0994,3.5525 h -16.04659 z"
   id="path850-0"
   inkscape:connector-curvature="0" /><path
   style="fill:#800080;fill-opacity:1;fill-rule:evenodd;stroke:#000000;stroke-width:2.03320885;stroke-linecap:round;stroke-linejoin:round;stroke-miterlimit:4;stroke-dasharray:none;stroke-dashoffset:0;stroke-opacity:1"
   d="m 126.02026,-1204.0412 c -4.23495,-1.5543 -10.47147,-4.7995 -13.85892,-7.2116 l -6.15901,-4.3856 6.334,-6.535 6.334,-6.535 9.39148,4.7545 c 13.22241,6.6941 27.42323,6.5194 34.36524,-0.4226 4.04443,-4.0444 4.87686,-6.3738 3.80456,-10.6462 -2.06933,-8.2448 -3.78674,-9.5292 -21.89014,-16.3698 -24.20182,-9.145 -31.93642,-17.5318 -31.93642,-34.6291 0,-9.4569 6.57718,-19.753 16.247,-25.4335 10.45841,-6.1438 38.21384,-5.926 50.09817,0.3931 11.45083,6.0886 12.17633,7.9836 5.66036,14.7848 l -5.57844,5.8226 -7.75752,-3.9576 c -15.37223,-7.8423 -32.27941,-3.4969 -32.27941,8.2964 0,6.5609 5.24092,10.0303 26.25716,17.3821 21.09492,7.3792 31.32822,23.5697 26.41952,41.7992 -2.87236,10.6672 -12.87671,20.8507 -23.33676,23.7547 -10.9093,3.0288 -32.73136,2.5824 -42.11487,-0.8614 z"
   id="path856-4"
   inkscape:connector-curvature="0" /><path
   inkscape:connector-curvature="0"
   d="m -124.98311,-1072.7356 c 0,5.31 -1.031,10.156 -3.087,14.543 -2.059,4.387 -4.984,8.152 -8.774,11.293 -3.793,3.144 -8.477,5.58 -14.055,7.312 -5.581,1.731 -11.836,2.601 -18.767,2.601 -9.968,0 -18.605,-1.572 -25.917,-4.713 -7.312,-3.141 -13.299,-6.986 -17.955,-11.536 l 13.812,-15.111 c 4.116,3.684 8.584,6.499 13.405,8.449 4.819,1.95 9.993,2.925 15.518,2.925 5.525,0 9.856,-1.219 12.999,-3.656 3.141,-2.438 4.712,-5.769 4.712,-9.993 0,-2.056 -0.3,-3.844 -0.894,-5.361 -0.596,-1.517 -1.653,-2.925 -3.168,-4.226 -1.518,-1.3 -3.549,-2.519 -6.093,-3.655 -2.546,-1.138 -5.768,-2.301 -9.668,-3.494 -6.5,-2.056 -11.943,-4.25 -16.33,-6.58 -4.387,-2.328 -7.937,-4.9 -10.643,-7.719 -2.709,-2.815 -4.659,-5.931 -5.849,-9.343 -1.193,-3.412 -1.788,-7.23 -1.788,-11.455 0,-5.2 1.082,-9.831 3.25,-13.893 2.166,-4.062 5.144,-7.5 8.937,-10.318 3.791,-2.815 8.178,-4.956 13.162,-6.418 4.981,-1.462 10.343,-2.193 16.086,-2.193 8.449,0 15.842,1.247 22.179,3.737 6.337,2.493 11.997,6.121 16.98,10.887 l -12.674,14.624 c -7.583,-6.281 -15.655,-9.424 -24.21,-9.424 -4.875,0 -8.721,0.95 -11.537,2.844 -2.818,1.896 -4.225,4.578 -4.225,8.043 0,1.843 0.297,3.412 0.894,4.712 0.594,1.3 1.65,2.519 3.168,3.656 1.516,1.137 3.656,2.249 6.418,3.331 2.763,1.084 6.309,2.33 10.643,3.736 5.306,1.734 10.046,3.631 14.218,5.688 4.169,2.06 7.662,4.524 10.48,7.394 2.815,2.871 4.981,6.174 6.5,9.911 1.513,3.734 2.273,8.202 2.273,13.402 z m 53.294996,10.562 20.637001,-90.181 h 27.460004 l -32.011004,112.604 h -33.634001 l -32.172996,-112.604 h 28.597996 l 20.311,90.181 z m 101.879005,25.186 c -16.357,0 -28.8960001,-5.01 -37.6150001,-15.03 -8.7219999,-10.019 -13.0809999,-24.779 -13.0809999,-44.278 0,-9.531 1.407,-17.98 4.225,-25.348 2.815,-7.366 6.6879999,-13.54 11.6179999,-18.524 4.92799996,-4.981 10.668,-8.747 17.2230001,-11.293 6.555,-2.544 13.568,-3.818 21.043,-3.818 8.229995,0 15.435995,1.3 21.611005,3.899 6.17399,2.6 11.53699,5.959 16.08599,10.075 l -14.137,14.624 c -3.46699,-3.032 -6.90599,-5.281 -10.318,-6.744 -3.412,-1.463 -7.393,-2.193 -11.940995,-2.193 -4.01,0 -7.693,0.731 -11.051,2.193 -3.358,1.462 -6.256,3.793 -8.691,6.987 -2.438,3.196 -4.334,7.287 -5.6880001,12.268 -1.355,4.984 -2.031,10.996 -2.031,18.037 0,7.367 0.486,13.567 1.463,18.604 0.975,5.037 2.4080001,9.1 4.3050001,12.187 1.895,3.087 4.307,5.309 7.23,6.662 2.926,1.355 6.338,2.031 10.238,2.031 5.631,0 10.612995,-1.244 14.946995,-3.737 v -25.186 H 30.841891 l -2.6,-18.849 h 43.546995 v 55.57 c -5.85,3.793 -12.297,6.718 -19.336,8.774 -7.043,2.057 -14.462995,3.089 -22.261995,3.089 z m 85.667999,-134.519 c 0,-6.627 -5.373,-12 -12,-12 h -343 c -6.62699,0 -11.99999,5.373 -11.99999,12 v 150 c 0,6.627 5.373,12 11.99999,12 h 343 c 6.627,0 12,-5.373 12,-12 z"
   id="path2-6-2-6"
   style="fill:#808080;fill-opacity:1" /><path
   style="fill:#800080;fill-opacity:1;fill-rule:evenodd;stroke:#000000;stroke-width:2.03320885;stroke-linecap:round;stroke-linejoin:round;stroke-miterlimit:4;stroke-dasharray:none;stroke-dashoffset:0;stroke-opacity:1"
   d="m -110.97612,-950.19696 c -9.9635,-4.64847 -19.9411,-15.66857 -23.61498,-26.08238 -1.56874,-4.44666 -2.7487,-16.05879 -2.75089,-27.07176 -0.004,-22.4783 3.8375,-33.2366 16.13434,-45.1791 16.6041,-16.1257 46.58009,-18.181 67.28665,-4.6136 l 5.30928,3.4788 -6.5382,6.7457 -6.53819,6.7457 -6.36519,-3.8813 c -10.09494,-6.1556 -23.95973,-5.2568 -32.33419,2.0961 -8.19285,7.1934 -11.59013,17.42 -11.57491,34.8432 0.0234,26.8095 7.19943,38.33471 23.86856,38.33471 14.55218,0 17.07869,-2.6788 16.32762,-17.31178 l -0.62226,-12.1234 -7.61255,-0.63004 c -5.53047,-0.45772 -7.62012,-1.56816 -7.64026,-4.06002 -0.0152,-1.88647 -0.57854,-5.48537 -1.25177,-7.99747 -1.21312,-4.5268 -1.03161,-4.5676 20.32784,-4.5676 h 21.55189 v 27.15522 27.15517 l -10.65756,4.7361 c -14.70992,6.53693 -41.65527,7.66303 -53.30523,2.22775 z"
   id="path848-9-5"
   inkscape:connector-curvature="0" /><path
   style="fill:#800080;fill-opacity:1;fill-rule:evenodd;stroke:#000000;stroke-width:2.03320885;stroke-linecap:round;stroke-linejoin:round;stroke-miterlimit:4;stroke-dasharray:none;stroke-dashoffset:0;stroke-opacity:1"
   d="m -210.34603,-959.05262 c -1.702,-5.86166 -8.91426,-30.98306 -16.02724,-55.82538 l -12.9327,-45.1677 h 13.50814 13.50814 l 9.79123,44.1527 c 5.38517,24.28406 10.44452,44.86113 11.243,45.72687 0.79848,0.86574 5.41284,-16.03412 10.25415,-37.55527 13.15912,-58.4964 10.27126,-52.3243 24.48213,-52.3243 7.05897,0 12.08466,0.8832 12.08466,2.1238 0,1.5978 -21.57396,78.65239 -29.67097,105.97432 -0.88757,2.99495 -3.57135,3.55252 -17.0994,3.55252 h -16.04659 z"
   id="path850-0-0"
   inkscape:connector-curvature="0" /><path
   style="fill:#800080;fill-opacity:1;fill-rule:evenodd;stroke:#000000;stroke-width:2.03320885;stroke-linecap:round;stroke-linejoin:round;stroke-miterlimit:4;stroke-dasharray:none;stroke-dashoffset:0;stroke-opacity:1"
   d="m -310.43236,-948.25969 c -4.23495,-1.55428 -10.47147,-4.79948 -13.85892,-7.21156 l -6.15901,-4.3856 6.334,-6.53503 6.334,-6.53503 9.39148,4.75458 c 13.22241,6.69403 27.42323,6.51939 34.36524,-0.42262 4.04443,-4.04443 4.87686,-6.3738 3.80456,-10.64621 -2.06933,-8.24485 -3.78674,-9.52916 -21.89014,-16.36979 -24.20182,-9.14505 -31.93642,-17.53175 -31.93642,-34.62915 0,-9.4569 6.57718,-19.753 16.247,-25.4335 10.45841,-6.1437 38.21384,-5.9259 50.09817,0.3931 11.45083,6.0886 12.17633,7.9836 5.66036,14.7848 l -5.57844,5.8226 -7.75752,-3.9576 c -15.37223,-7.8423 -32.27941,-3.4969 -32.27941,8.2964 0,6.5609 5.24092,10.0304 26.25716,17.3821 21.09492,7.3793 31.32822,23.56975 26.41952,41.79927 -2.87236,10.66714 -12.87671,20.85066 -23.33676,23.7547 -10.9093,3.02876 -32.73136,2.5824 -42.11487,-0.86146 z"
   id="path856-4-1"
   inkscape:connector-curvature="0" /><path
   inkscape:connector-curvature="0"
   d="m 737.77206,-1060.5555 c 0,5.31 -1.031,10.156 -3.087,14.543 -2.059,4.387 -4.984,8.152 -8.774,11.293 -3.793,3.144 -8.477,5.58 -14.055,7.312 -5.581,1.731 -11.836,2.601 -18.767,2.601 -9.968,0 -18.605,-1.572 -25.917,-4.713 -7.312,-3.141 -13.299,-6.986 -17.955,-11.536 l 13.812,-15.111 c 4.116,3.684 8.584,6.499 13.405,8.449 4.819,1.95 9.993,2.925 15.518,2.925 5.525,0 9.856,-1.219 12.999,-3.656 3.141,-2.438 4.712,-5.769 4.712,-9.993 0,-2.056 -0.3,-3.844 -0.894,-5.361 -0.596,-1.517 -1.653,-2.925 -3.168,-4.226 -1.518,-1.3 -3.549,-2.519 -6.093,-3.655 -2.546,-1.138 -5.768,-2.301 -9.668,-3.494 -6.5,-2.056 -11.943,-4.25 -16.33,-6.58 -4.387,-2.328 -7.937,-4.9 -10.643,-7.719 -2.709,-2.815 -4.659,-5.931 -5.849,-9.343 -1.193,-3.412 -1.788,-7.23 -1.788,-11.455 0,-5.2 1.082,-9.831 3.25,-13.893 2.166,-4.062 5.144,-7.5 8.937,-10.318 3.791,-2.815 8.178,-4.956 13.162,-6.418 4.981,-1.462 10.343,-2.193 16.086,-2.193 8.449,0 15.842,1.247 22.179,3.737 6.337,2.493 11.997,6.121 16.98,10.887 l -12.674,14.624 c -7.583,-6.281 -15.655,-9.424 -24.21,-9.424 -4.875,0 -8.721,0.95 -11.537,2.844 -2.818,1.896 -4.225,4.578 -4.225,8.043 0,1.843 0.297,3.412 0.894,4.712 0.594,1.3 1.65,2.519 3.168,3.656 1.516,1.137 3.656,2.249 6.418,3.331 2.763,1.084 6.309,2.33 10.643,3.736 5.306,1.734 10.046,3.631 14.218,5.688 4.169,2.06 7.662,4.524 10.48,7.394 2.815,2.871 4.981,6.174 6.5,9.911 1.513,3.734 2.273,8.202 2.273,13.402 z m 53.295,10.562 20.637,-90.181 h 27.46 l -32.011,112.604 h -33.634 l -32.173,-112.604 h 28.598 l 20.311,90.181 z m 101.879,25.186 c -16.357,0 -28.896,-5.01 -37.615,-15.03 -8.722,-10.019 -13.081,-24.779 -13.081,-44.278 0,-9.531 1.407,-17.98 4.225,-25.348 2.815,-7.366 6.688,-13.54 11.618,-18.524 4.928,-4.981 10.668,-8.747 17.223,-11.293 6.555,-2.544 13.568,-3.818 21.043,-3.818 8.23,0 15.436,1.3 21.611,3.899 6.174,2.6 11.537,5.959 16.086,10.075 l -14.137,14.624 c -3.467,-3.032 -6.906,-5.281 -10.318,-6.744 -3.412,-1.463 -7.393,-2.193 -11.941,-2.193 -4.01,0 -7.693,0.731 -11.051,2.193 -3.358,1.462 -6.256,3.793 -8.691,6.987 -2.438,3.196 -4.334,7.287 -5.688,12.268 -1.355,4.984 -2.031,10.996 -2.031,18.037 0,7.367 0.486,13.567 1.463,18.604 0.975,5.037 2.408,9.1 4.305,12.187 1.895,3.087 4.307,5.309 7.23,6.662 2.926,1.355 6.338,2.031 10.238,2.031 5.631,0 10.613,-1.244 14.947,-3.737 v -25.186 h -14.785 l -2.6,-18.849 h 43.547 v 55.57 c -5.85,3.793 -12.297,6.718 -19.336,8.774 -7.043,2.057 -14.463,3.089 -22.262,3.089 z m 85.66797,-134.519 c 0,-6.627 -5.373,-12 -12,-12 H 623.61406 c -6.62699,0 -11.99999,5.373 -11.99999,12 v 150 c 0,6.627 5.373,11.99999 11.99999,11.99999 h 342.99997 c 6.627,0 12,-5.37299 12,-11.99999 z"
   id="path2-6-2-6-9"
   style="fill:#808080;fill-opacity:1" /><path
   style="fill:#800080;fill-opacity:1;fill-rule:evenodd;stroke:#000000;stroke-width:2.03320885;stroke-linecap:round;stroke-linejoin:round;stroke-miterlimit:4;stroke-dasharray:none;stroke-dashoffset:0;stroke-opacity:1"
   d="m 751.77905,-938.01689 c -9.9635,-4.64847 -19.9411,-15.66857 -23.61498,-26.08238 -1.56874,-4.44666 -2.7487,-16.05879 -2.75089,-27.07178 -0.004,-22.47835 3.8375,-33.23655 16.13434,-45.17905 16.6041,-16.1257 46.58009,-18.1811 67.28665,-4.6136 l 5.30928,3.4788 -6.5382,6.7457 -6.53819,6.7457 -6.36519,-3.8813 c -10.09494,-6.1556 -23.95973,-5.2568 -32.33419,2.0961 -8.19285,7.1934 -11.59013,17.42 -11.57491,34.84318 0.0234,26.80949 7.19943,38.3347 23.86856,38.3347 14.55218,0 17.07869,-2.6788 16.32762,-17.31178 l -0.62226,-12.1234 -7.61255,-0.63004 c -5.53047,-0.45772 -7.62012,-1.56816 -7.64026,-4.06002 -0.0152,-1.88649 -0.57854,-5.48537 -1.25177,-7.99751 -1.21312,-4.52674 -1.03161,-4.56752 20.32784,-4.56752 h 21.55189 v 27.15518 27.15517 l -10.65756,4.7361 c -14.70992,6.53693 -41.65527,7.66303 -53.30523,2.22775 z"
   id="path848-9-5-7"
   inkscape:connector-curvature="0" /><path
   style="fill:#800080;fill-opacity:1;fill-rule:evenodd;stroke:#000000;stroke-width:2.03320885;stroke-linecap:round;stroke-linejoin:round;stroke-miterlimit:4;stroke-dasharray:none;stroke-dashoffset:0;stroke-opacity:1"
   d="m 652.40914,-946.87255 c -1.702,-5.86166 -8.91426,-30.98306 -16.02724,-55.82535 l -12.9327,-45.1678 h 13.50814 13.50814 l 9.79123,44.1528 c 5.38517,24.28403 10.44452,44.8611 11.243,45.72684 0.79848,0.86574 5.41284,-16.03412 10.25415,-37.55523 13.15912,-58.49641 10.27126,-52.32441 24.48213,-52.32441 7.05897,0 12.08466,0.8833 12.08466,2.1239 0,1.5977 -21.57396,78.65236 -29.67097,105.97429 -0.88757,2.99495 -3.57135,3.55252 -17.0994,3.55252 h -16.04659 z"
   id="path850-0-0-9"
   inkscape:connector-curvature="0" /><path
   style="fill:#800080;fill-opacity:1;fill-rule:evenodd;stroke:#000000;stroke-width:2.03320885;stroke-linecap:round;stroke-linejoin:round;stroke-miterlimit:4;stroke-dasharray:none;stroke-dashoffset:0;stroke-opacity:1"
   d="m 552.32281,-936.07962 c -4.23495,-1.55428 -10.47147,-4.79948 -13.85892,-7.21156 l -6.15901,-4.3856 6.334,-6.53503 6.334,-6.53503 9.39148,4.75458 c 13.22241,6.69403 27.42323,6.51939 34.36524,-0.42262 4.04443,-4.04443 4.87686,-6.3738 3.80456,-10.64621 -2.06933,-8.24485 -3.78674,-9.52916 -21.89014,-16.36979 -24.20182,-9.14502 -31.93642,-17.53182 -31.93642,-34.62912 0,-9.4569 6.57718,-19.753 16.247,-25.4335 10.45841,-6.1438 38.21384,-5.926 50.09817,0.3931 11.45083,6.0886 12.17633,7.9836 5.66036,14.7848 l -5.57844,5.8226 -7.75752,-3.9576 c -15.37223,-7.8423 -32.27941,-3.4969 -32.27941,8.2964 0,6.5609 5.24092,10.0303 26.25716,17.3821 21.09492,7.37924 31.32822,23.56972 26.41952,41.79924 -2.87236,10.66714 -12.87671,20.85066 -23.33676,23.7547 -10.9093,3.02876 -32.73136,2.5824 -42.11487,-0.86146 z"
   id="path856-4-1-3"
   inkscape:connector-curvature="0" /><path
   inkscape:connector-curvature="0"
   d="m 307.40948,-825.07409 c 0,5.31 -1.031,10.156 -3.087,14.543 -2.059,4.387 -4.984,8.152 -8.774,11.293 -3.793,3.144 -8.477,5.58 -14.055,7.312 -5.581,1.731 -11.836,2.601 -18.767,2.601 -9.968,0 -18.605,-1.572 -25.917,-4.713 -7.312,-3.141 -13.299,-6.986 -17.955,-11.536 l 13.812,-15.111 c 4.116,3.684 8.584,6.499 13.405,8.449 4.819,1.95 9.993,2.925 15.518,2.925 5.525,0 9.856,-1.219 12.999,-3.656 3.141,-2.438 4.712,-5.769 4.712,-9.993 0,-2.056 -0.3,-3.844 -0.894,-5.361 -0.596,-1.517 -1.653,-2.925 -3.168,-4.226 -1.518,-1.3 -3.549,-2.519 -6.093,-3.65501 -2.546,-1.138 -5.768,-2.30099 -9.668,-3.49399 -6.5,-2.056 -11.943,-4.25 -16.33,-6.58 -4.387,-2.328 -7.937,-4.9 -10.643,-7.719 -2.709,-2.815 -4.659,-5.931 -5.849,-9.343 -1.193,-3.412 -1.788,-7.23 -1.788,-11.455 0,-5.2 1.082,-9.831 3.25,-13.893 2.166,-4.062 5.144,-7.5 8.937,-10.318 3.791,-2.815 8.178,-4.956 13.162,-6.418 4.981,-1.462 10.343,-2.193 16.086,-2.193 8.449,0 15.842,1.247 22.179,3.737 6.337,2.493 11.997,6.121 16.98,10.887 l -12.674,14.624 c -7.583,-6.281 -15.655,-9.424 -24.21,-9.424 -4.875,0 -8.721,0.95 -11.537,2.844 -2.818,1.896 -4.225,4.578 -4.225,8.043 0,1.843 0.297,3.412 0.894,4.712 0.594,1.3 1.65,2.519 3.168,3.656 1.516,1.137 3.656,2.249 6.418,3.331 2.763,1.084 6.309,2.33 10.643,3.736 5.306,1.734 10.046,3.631 14.218,5.688 4.169,2.06 7.662,4.524 10.48,7.394 2.815,2.871 4.981,6.174 6.5,9.911 1.513,3.734 2.273,8.202 2.273,13.402 z m 53.295,10.562 20.637,-90.181 h 27.46 l -32.011,112.604 h -33.634 l -32.173,-112.604 h 28.598 l 20.311,90.181 z m 101.879,25.186 c -16.357,0 -28.896,-5.01 -37.615,-15.03 -8.722,-10.019 -13.081,-24.779 -13.081,-44.278 0,-9.531 1.407,-17.98 4.225,-25.348 2.815,-7.366 6.688,-13.54 11.618,-18.524 4.928,-4.981 10.668,-8.747 17.223,-11.293 6.555,-2.544 13.568,-3.818 21.043,-3.818 8.23,0 15.436,1.3 21.611,3.899 6.174,2.6 11.537,5.959 16.086,10.075 l -14.137,14.624 c -3.467,-3.032 -6.906,-5.281 -10.318,-6.744 -3.412,-1.463 -7.393,-2.193 -11.941,-2.193 -4.01,0 -7.693,0.731 -11.051,2.193 -3.358,1.462 -6.256,3.793 -8.691,6.987 -2.438,3.196 -4.334,7.287 -5.688,12.268 -1.355,4.984 -2.031,10.996 -2.031,18.037 0,7.367 0.486,13.567 1.463,18.604 0.975,5.037 2.408,9.1 4.305,12.187 1.895,3.087 4.307,5.309 7.23,6.662 2.926,1.355 6.338,2.031 10.238,2.031 5.631,0 10.613,-1.244 14.947,-3.737 v -25.18601 h -14.785 l -2.6,-18.84899 h 43.547 v 55.57 c -5.85,3.793 -12.297,6.718 -19.336,8.774 -7.043,2.057 -14.463,3.089 -22.262,3.089 z m 85.668,-134.519 c 0,-6.627 -5.373,-12 -12,-12 h -343 c -6.62699,0 -11.99999,5.373 -11.99999,12 v 150 c 0,6.627 5.373,12 11.99999,12 h 343 c 6.627,0 12,-5.373 12,-12 z"
   id="path2-6-2-6-9-2"
   style="fill:#808080;fill-opacity:1" /><path
   style="fill:#800080;fill-opacity:1;fill-rule:evenodd;stroke:#000000;stroke-width:2.03320885;stroke-linecap:round;stroke-linejoin:round;stroke-miterlimit:4;stroke-dasharray:none;stroke-dashoffset:0;stroke-opacity:1"
   d="m 321.41647,-702.53547 c -9.9635,-4.64847 -19.9411,-15.66857 -23.61498,-26.08238 -1.56874,-4.44666 -2.7487,-16.05879 -2.75089,-27.07178 -0.004,-22.47831 3.8375,-33.23655 16.13434,-45.17909 16.6041,-16.12569 46.58009,-18.18101 67.28665,-4.61355 l 5.30928,3.47877 -6.5382,6.7457 -6.53819,6.74571 -6.36519,-3.8813 c -10.09494,-6.15559 -23.95973,-5.25679 -32.33419,2.09608 -8.19285,7.19342 -11.59013,17.42003 -11.57491,34.84321 0.0234,26.80949 7.19943,38.3347 23.86856,38.3347 14.55218,0 17.07869,-2.6788 16.32762,-17.31178 l -0.62226,-12.1234 -7.61255,-0.63004 c -5.53047,-0.45772 -7.62012,-1.56816 -7.64026,-4.06002 -0.0152,-1.88649 -0.57854,-5.48537 -1.25177,-7.99751 -1.21312,-4.52674 -1.03161,-4.56752 20.32784,-4.56752 h 21.55189 v 27.15518 27.15517 l -10.65756,4.7361 c -14.70992,6.53693 -41.65527,7.66303 -53.30523,2.22775 z"
   id="path848-9-5-7-0"
   inkscape:connector-curvature="0" /><path
   style="fill:#800080;fill-opacity:1;fill-rule:evenodd;stroke:#000000;stroke-width:2.03320885;stroke-linecap:round;stroke-linejoin:round;stroke-miterlimit:4;stroke-dasharray:none;stroke-dashoffset:0;stroke-opacity:1"
   d="m 222.04656,-711.39113 c -1.702,-5.86166 -8.91426,-30.98306 -16.02724,-55.82534 l -12.9327,-45.16777 h 13.50814 13.50814 l 9.79123,44.15277 c 5.38517,24.28402 10.44452,44.86109 11.243,45.72683 0.79848,0.86574 5.41284,-16.03412 10.25415,-37.55523 13.15912,-58.49644 10.27126,-52.32437 24.48213,-52.32437 7.05897,0 12.08466,0.88325 12.08466,2.12383 0,1.59777 -21.57396,78.65239 -29.67097,105.97432 -0.88757,2.99495 -3.57135,3.55252 -17.0994,3.55252 h -16.04659 z"
   id="path850-0-0-9-5"
   inkscape:connector-curvature="0" /><path
   style="fill:#800080;fill-opacity:1;fill-rule:evenodd;stroke:#000000;stroke-width:2.03320885;stroke-linecap:round;stroke-linejoin:round;stroke-miterlimit:4;stroke-dasharray:none;stroke-dashoffset:0;stroke-opacity:1"
   d="m 121.96023,-700.5982 c -4.23495,-1.55428 -10.47147,-4.79948 -13.85892,-7.21156 l -6.15901,-4.3856 6.334,-6.53503 6.334,-6.53503 9.39148,4.75458 c 13.22241,6.69403 27.42323,6.51939 34.36524,-0.42262 4.04443,-4.04443 4.87686,-6.3738 3.80456,-10.64621 -2.06933,-8.24485 -3.78674,-9.52916 -21.89014,-16.36979 -24.20182,-9.14502 -31.93642,-17.53177 -31.93642,-34.62916 0,-9.45687 6.57718,-19.75296 16.247,-25.43345 10.45841,-6.14376 38.21384,-5.92598 50.09817,0.39309 11.45083,6.08858 12.17633,7.98357 5.66036,14.78477 l -5.57844,5.82264 -7.75752,-3.95759 c -15.37223,-7.84233 -32.27941,-3.49691 -32.27941,8.29634 0,6.56091 5.24092,10.03037 26.25716,17.38212 21.09492,7.37926 31.32822,23.56974 26.41952,41.79926 -2.87236,10.66714 -12.87671,20.85066 -23.33676,23.7547 -10.9093,3.02876 -32.73136,2.5824 -42.11487,-0.86146 z"
   id="path856-4-1-3-9"
   inkscape:connector-curvature="0" /><rect
   style="fill:none;fill-opacity:1;fill-rule:evenodd;stroke:#000000;stroke-width:38.00700378;stroke-linecap:butt;stroke-linejoin:round;stroke-miterlimit:17;stroke-dasharray:none;stroke-dashoffset:0;stroke-opacity:1;paint-order:normal"
   id="rect832"
   width="1514.389"
   height="943.99615"
   x="-477.97821"
   y="-1537.0548"
   ry="190.70628" /></svg>