<?xml version="1.0" encoding="UTF-8" standalone="no"?>
<!-- Created with Inkscape (http://www.inkscape.org/) -->

<svg
   xmlns:dc="http://purl.org/dc/elements/1.1/"
   xmlns:cc="http://creativecommons.org/ns#"
   xmlns:rdf="http://www.w3.org/1999/02/22-rdf-syntax-ns#"
   xmlns:svg="http://www.w3.org/2000/svg"
   xmlns="http://www.w3.org/2000/svg"
   xmlns:sodipodi="http://sodipodi.sourceforge.net/DTD/sodipodi-0.dtd"
   xmlns:inkscape="http://www.inkscape.org/namespaces/inkscape"
   width="210mm"
   height="297mm"
   viewBox="0 0 210 297"
   version="1.1"
   id="svg8"
   inkscape:version="0.92.4 (5da689c313, 2019-01-14)"
   sodipodi:docname="MC.svg">
  <defs
     id="defs2" />
  <sodipodi:namedview
     id="base"
     pagecolor="#ffffff"
     bordercolor="#666666"
     borderopacity="1.0"
     inkscape:pageopacity="0.0"
     inkscape:pageshadow="2"
     inkscape:zoom="0.35"
     inkscape:cx="-361.78545"
     inkscape:cy="725.80001"
     inkscape:document-units="mm"
     inkscape:current-layer="g866"
     showgrid="false"
     inkscape:window-width="1920"
     inkscape:window-height="1028"
     inkscape:window-x="-8"
     inkscape:window-y="-8"
     inkscape:window-maximized="1" />
  <metadata
     id="metadata5">
    <rdf:RDF>
      <cc:Work
         rdf:about="">
        <dc:format>image/svg+xml</dc:format>
        <dc:type
           rdf:resource="http://purl.org/dc/dcmitype/StillImage" />
        <dc:title />
      </cc:Work>
    </rdf:RDF>
  </metadata>
  <g
     inkscape:label="Layer 1"
     inkscape:groupmode="layer"
     id="layer1">
    <path
       style="fill:#000000;stroke-width:0.3948178"
       d="m -6.6061854,290.35914 c -1.44029,-0.57986 -2.23947,-1.21791 -2.96577,-2.36781 -0.9738296,-1.54182 -0.9941996,-1.82386 -0.9941996,-13.77178 0,-11.94791 0.0204,-12.22996 0.9941996,-13.77178 1.49279,-2.36342 3.77529,-3.16155 9.04145006,-3.16155 H 3.5736145 v -20.47966 c 0,-22.86028 0.0773,-23.5833 2.9251404,-27.37701 3.0294097,-4.03551 7.5698001,-6.82052 12.9462201,-7.94104 2.69007,-0.56064 8.365462,-0.60759 75.72895,-0.6264 80.844105,-0.0226 76.305195,-0.15157 81.460115,2.31504 5.05465,2.41862 8.54298,6.04356 9.94646,10.33598 0.6744,2.06262 0.76196,4.63447 0.78459,23.0474 l 0.0254,20.72569 h 4.10411 c 5.26617,0 7.54866,0.79813 9.04145,3.16155 0.97384,1.54182 0.9942,1.82387 0.9942,13.77178 0,11.94792 -0.0204,12.22996 -0.9942,13.77178 -0.7263,1.1499 -1.52548,1.78795 -2.96577,2.36781 l -1.97156,0.79375 H 95.482095 -4.6346054 Z"
       id="path826"
       inkscape:connector-curvature="0"
       sodipodi:nodetypes="scscscsccsccccscscccccs"
       inkscape:export-xdpi="50"
       inkscape:export-ydpi="50" />
    <g
       id="g878"
       style="fill:#ffffff"
       inkscape:export-xdpi="50"
       inkscape:export-ydpi="50">
      <g
         id="g866"
         inkscape:export-xdpi="50"
         inkscape:export-ydpi="50">
        <g
           id="g915"
           inkscape:export-xdpi="50"
           inkscape:export-ydpi="50">
          <rect
             y="235.84303"
             x="22.231161"
             height="27.967733"
             width="27.967733"
             id="rect828-2-8-6"
             style="fill:#ffffff;fill-opacity:1;fill-rule:evenodd;stroke:#ffffff;stroke-width:21.83395386;stroke-linecap:round;stroke-linejoin:round;stroke-miterlimit:1.70000005;stroke-dasharray:none;stroke-dashoffset:0;stroke-opacity:1" />
          <rect
             y="235.84303"
             x="81.498177"
             height="27.967733"
             width="27.967733"
             id="rect828-2-8-6-7"
             style="fill:#ffffff;fill-opacity:1;fill-rule:evenodd;stroke:#ffffff;stroke-width:21.83395386;stroke-linecap:round;stroke-linejoin:round;stroke-miterlimit:1.70000005;stroke-dasharray:none;stroke-dashoffset:0;stroke-opacity:1" />
          <rect
             y="235.84303"
             x="140.7652"
             height="27.967733"
             width="27.967733"
             id="rect828-2-8-6-7-5"
             style="fill:#ffffff;fill-opacity:1;fill-rule:evenodd;stroke:#ffffff;stroke-width:21.83395386;stroke-linecap:round;stroke-linejoin:round;stroke-miterlimit:1.70000005;stroke-dasharray:none;stroke-dashoffset:0;stroke-opacity:1" />
        </g>
      </g>
    </g>
    <path
       style="fill:#000000;stroke-width:0.35277778"
       d="m 56.821457,193.22784 c 2.89941,-4.88156 6.6749,-8.75983 11.98596,-12.31234 5.69096,-3.80663 12.20536,-6.57165 18.38434,-7.8032 l 2.46945,-0.4922 0.096,-6.36377 0.096,-6.36378 -2.03626,-0.99105 c -4.47108,-2.17611 -8.07376,-7.17138 -8.97888,-12.44966 -1.42975,-8.33769 4.15192,-16.71697 12.601729,-18.91787 11.387054,-2.96594 22.491924,7.10081 20.681204,18.74786 -0.83311,5.35876 -4.42041,10.40351 -8.97378,12.61967 l -2.03626,0.99105 0.096,6.37251 0.096,6.3725 2.42652,0.44757 c 5.62036,1.03664 12.71368,4.0303 18.19355,7.6784 5.50929,3.66769 9.27833,7.51217 12.21968,12.46431 l 0.89052,1.49931 H 95.482035 55.930947 Z m -3.33343,-44.45001 c -1.69441,-0.85444 -3.16155,-3.10545 -3.16155,-4.85069 0,-1.74525 1.46714,-3.99626 3.16155,-4.8507 1.46385,-0.73817 2.03292,-0.79375 8.12734,-0.79375 6.09442,0 6.66349,0.0556 8.12734,0.79375 1.6944,0.85444 3.16155,3.10545 3.16155,4.8507 0,1.74524 -1.46715,3.99625 -3.16155,4.85069 -1.46385,0.73817 -2.03292,0.79375 -8.12734,0.79375 -6.09442,0 -6.66349,-0.0556 -8.12734,-0.79375 z m 67.733343,0 c -1.6944,-0.85444 -3.16155,-3.10545 -3.16155,-4.85069 0,-1.74525 1.46715,-3.99626 3.16155,-4.8507 1.46385,-0.73817 2.03292,-0.79375 8.12734,-0.79375 6.09442,0 6.66349,0.0556 8.12733,0.79375 1.69441,0.85444 3.16156,3.10545 3.16156,4.8507 0,1.74524 -1.46715,3.99625 -3.16156,4.85069 -1.46384,0.73817 -2.03291,0.79375 -8.12733,0.79375 -6.09442,0 -6.66349,-0.0556 -8.12734,-0.79375 z"
       id="path826-5"
       inkscape:connector-curvature="0"
       sodipodi:nodetypes="cscccccscscccccsccccccssscscsccscscscsc"
       inkscape:export-xdpi="50"
       inkscape:export-ydpi="50" />
  </g>
</svg>
